<svg width="100" height="100" viewBox="0 0 100 100" fill="none" xmlns="http://www.w3.org/2000/svg">
<circle cx="50" cy="50" r="47" fill="black"/>
<rect x="23.5" y="23.5" width="53" height="53" stroke="black"/>
<path d="M56.75 54.5C57.2 52.25 58.325 50.675 60.125 48.875C62.375 46.85 63.5 43.925 63.5 41C63.5 37.4196 62.0777 33.9858 59.5459 31.4541C57.0142 28.9223 53.5804 27.5 50 27.5C46.4196 27.5 42.9858 28.9223 40.4541 31.4541C37.9223 33.9858 36.5 37.4196 36.5 41C36.5 43.25 36.95 45.95 39.875 48.875C41.45 50.45 42.8 52.25 43.25 54.5" stroke="white" stroke-width="5" stroke-linecap="round" stroke-linejoin="round"/>
<path d="M43.25 63.5H56.75" stroke="white" stroke-width="5" stroke-linecap="round" stroke-linejoin="round"/>
<path d="M45.5 72.5H54.5" stroke="white" stroke-width="5" stroke-linecap="round" stroke-linejoin="round"/>
</svg>
