<svg width="2769" height="996" viewBox="0 0 2769 996" fill="none" xmlns="http://www.w3.org/2000/svg">
<mask id="mask0_7_2" style="mask-type:alpha" maskUnits="userSpaceOnUse" x="179" y="102" width="808" height="808">
<g clip-path="url(#clip0_7_2)">
<path fill-rule="evenodd" clip-rule="evenodd" d="M252.506 308.834C260.106 311.283 264.237 312.152 276.202 313.818C280.816 314.461 297.872 313.508 304.518 312.236C325.904 308.146 344.033 298.464 359.775 282.726C372.773 269.732 380.418 257.313 385.881 240.32C389.742 228.312 390.864 221.01 390.864 207.903C390.864 194.795 389.742 187.494 385.881 175.486C380.418 158.493 372.773 146.075 359.775 133.08C346.777 120.085 334.355 112.442 317.358 106.981C305.347 103.122 298.043 102 284.932 102C271.821 102 264.517 103.122 252.506 106.981C235.509 112.442 223.087 120.085 210.088 133.08C197.09 146.075 189.445 158.493 183.982 175.486C180.122 187.494 179 194.795 179 207.903C179 221.01 180.122 228.312 183.982 240.32C189.445 257.313 197.09 269.732 210.088 282.726C223.079 295.713 235.483 303.348 252.506 308.834ZM579.209 910H579.433C586.451 909.993 597.853 909.195 603.003 908.211C624.389 904.122 642.517 894.44 658.259 878.7C671.258 865.707 678.903 853.292 684.366 836.295C688.226 824.286 689.348 816.985 689.348 803.878C689.348 790.772 688.226 783.47 684.366 771.461C678.903 754.469 671.258 742.05 658.259 729.055C645.261 716.061 632.839 708.418 615.842 702.957C603.831 699.097 596.527 697.976 583.416 697.976C570.305 697.976 563.002 699.097 550.991 702.957C533.993 708.418 521.571 716.061 508.573 729.055C495.575 742.05 487.93 754.469 482.467 771.461C478.607 783.47 477.485 790.772 477.485 803.878C477.485 816.985 478.607 824.286 482.467 836.295C487.93 853.292 495.575 865.707 508.573 878.7C521.564 891.687 533.968 899.321 550.991 904.807C558.591 907.26 562.722 908.125 574.686 909.794C575.687 909.934 577.272 910 579.209 910ZM876.865 910H877.085C884.102 909.993 895.503 909.195 900.657 908.211C922.042 904.122 940.174 894.44 955.911 878.7C968.908 865.707 976.557 853.292 982.018 836.295C985.876 824.286 987 816.985 987 803.878C987 790.772 985.876 783.47 982.018 771.461C976.557 754.469 968.908 742.05 955.911 729.055C942.914 716.061 930.496 708.418 913.495 702.957C901.482 699.097 894.179 697.976 881.069 697.976C867.959 697.976 860.655 699.097 848.643 702.957C831.646 708.418 819.224 716.061 806.226 729.055C793.228 742.05 785.583 754.469 780.12 771.461C776.26 783.47 775.138 790.772 775.138 803.878C775.138 816.985 776.26 824.286 780.12 836.295C785.583 853.292 793.228 865.707 806.226 878.7C819.217 891.687 831.621 899.321 848.643 904.807C856.246 907.26 860.376 908.125 872.342 909.794C873.34 909.934 874.923 910 876.865 910ZM987 506.307C987 493.199 985.876 485.897 982.018 473.889C976.557 456.897 968.908 444.478 955.911 431.483C942.914 418.488 930.496 410.846 913.495 405.385C901.482 401.525 894.179 400.403 881.069 400.403C867.959 400.403 860.655 401.525 848.643 405.385C831.646 410.846 819.224 418.489 806.226 431.483C793.228 444.478 785.583 456.897 780.12 473.889C776.26 485.897 775.138 493.199 775.138 506.307C775.138 519.414 776.26 526.716 780.12 538.724C785.583 555.716 793.228 568.134 806.226 581.13C819.217 594.117 831.621 601.751 848.643 607.237C856.246 609.686 860.376 610.555 872.342 612.221C876.952 612.864 894.013 611.911 900.657 610.64C922.042 606.549 940.174 596.868 955.911 581.13C968.908 568.134 976.557 555.716 982.018 538.724C985.876 526.716 987 519.414 987 506.307ZM179 506.307C179 519.414 180.122 526.716 183.983 538.724C189.445 555.716 197.09 568.134 210.089 581.13C223.079 594.117 235.483 601.751 252.506 607.237C260.106 609.686 264.237 610.555 276.202 612.221C280.816 612.864 297.872 611.911 304.519 610.64C325.904 606.549 344.033 596.868 359.775 581.13C372.773 568.134 380.418 555.716 385.881 538.724C389.742 526.716 390.864 519.414 390.864 506.306C390.864 493.199 389.742 485.897 385.881 473.889C380.418 456.897 372.773 444.478 359.775 431.483C346.777 418.488 334.355 410.846 317.358 405.385C305.347 401.525 298.043 400.403 284.932 400.403C271.821 400.403 264.517 401.525 252.506 405.385C235.509 410.846 223.087 418.489 210.089 431.483C197.09 444.478 189.445 456.897 183.983 473.889C180.122 485.897 179 493.199 179 506.307ZM583.416 102C570.305 102 563.002 103.122 550.991 106.981C533.993 112.442 521.571 120.085 508.573 133.08C495.574 146.075 487.93 158.493 482.467 175.486C478.607 187.494 477.485 194.795 477.485 207.903C477.485 221.01 478.607 228.312 482.467 240.32C487.93 257.313 495.575 269.732 508.573 282.726C521.564 295.713 533.968 303.348 550.991 308.834C558.59 311.283 562.722 312.152 574.686 313.818C579.3 314.461 596.356 313.508 603.003 312.236C624.389 308.146 642.517 298.464 658.259 282.726C671.258 269.732 678.903 257.313 684.366 240.32C688.226 228.312 689.348 221.01 689.348 207.903C689.348 194.795 688.226 187.494 684.366 175.486C678.903 158.493 671.258 146.075 658.259 133.08C645.261 120.085 632.839 112.442 615.842 106.981C603.831 103.122 596.527 102 583.416 102ZM550.991 607.237C558.591 609.686 562.722 610.555 574.686 612.221C579.301 612.864 596.356 611.911 603.003 610.64C624.389 606.549 642.517 596.868 658.259 581.13C671.258 568.134 678.903 555.716 684.366 538.724C688.226 526.716 689.348 519.414 689.348 506.307C689.348 493.199 688.226 485.897 684.366 473.889C678.903 456.897 671.258 444.478 658.259 431.483C645.261 418.488 632.839 410.846 615.842 405.385C603.831 401.525 596.527 400.403 583.416 400.403C570.305 400.403 563.002 401.525 550.991 405.385C533.993 410.846 521.571 418.489 508.573 431.483C495.575 444.478 487.93 456.897 482.467 473.889C478.607 485.897 477.485 493.199 477.485 506.307C477.485 519.414 478.607 526.716 482.467 538.724C487.93 555.716 495.575 568.134 508.573 581.13C521.564 594.117 533.968 601.751 550.991 607.237Z" fill="black"/>
</g>
</mask>
<g mask="url(#mask0_7_2)">
<rect x="179" y="102" width="808" height="808" fill="url(#paint0_linear_7_2)"/>
</g>
<path d="M1116.66 612V399.9H1162.72L1273.92 551.4L1263.92 549.885C1262.91 543.219 1262.1 536.856 1261.5 530.796C1260.89 524.736 1260.29 518.777 1259.68 512.919C1259.28 507.061 1258.87 501.102 1258.47 495.042C1258.27 488.982 1258.06 482.417 1257.86 475.347C1257.86 468.277 1257.86 460.601 1257.86 452.319V399.9H1307.86V612H1261.19L1145.15 455.652L1160.6 457.773C1161.61 467.469 1162.42 475.751 1163.02 482.619C1163.83 489.285 1164.44 495.244 1164.84 500.496C1165.45 505.748 1165.85 510.495 1166.05 514.737C1166.26 518.979 1166.36 523.221 1166.36 527.463C1166.56 531.503 1166.66 536.048 1166.66 541.098V612H1116.66ZM1358.65 612V451.107H1407.13V612H1358.65ZM1382.89 419.292C1373.8 419.292 1366.63 417.171 1361.38 412.929C1356.33 408.485 1353.8 402.223 1353.8 394.143C1353.8 386.871 1356.43 380.912 1361.68 376.266C1366.93 371.62 1374 369.297 1382.89 369.297C1391.98 369.297 1399.05 371.519 1404.1 375.963C1409.15 380.205 1411.68 386.265 1411.68 394.143C1411.68 401.617 1409.05 407.677 1403.8 412.323C1398.75 416.969 1391.78 419.292 1382.89 419.292ZM1452.38 612V451.107H1498.44L1499.95 480.195L1493.59 480.498C1496.01 475.246 1499.04 470.6 1502.68 466.56C1506.52 462.52 1510.76 459.187 1515.4 456.561C1520.25 453.733 1525.2 451.612 1530.25 450.198C1535.5 448.784 1540.76 448.077 1546.01 448.077C1553.89 448.077 1561.06 449.289 1567.52 451.713C1573.98 454.137 1579.64 458.076 1584.49 463.53C1589.34 468.782 1593.17 475.953 1596 485.043L1588.43 484.437L1590.85 479.589C1593.48 474.741 1596.81 470.398 1600.85 466.56C1605.09 462.52 1609.74 459.187 1614.79 456.561C1619.84 453.733 1625.09 451.612 1630.54 450.198C1636 448.784 1641.25 448.077 1646.3 448.077C1659.03 448.077 1669.63 450.602 1678.12 455.652C1686.6 460.5 1692.96 467.873 1697.2 477.771C1701.65 487.669 1703.87 499.688 1703.87 513.828V612H1655.09V517.767C1655.09 511.303 1654.18 505.95 1652.36 501.708C1650.54 497.466 1647.82 494.335 1644.18 492.315C1640.75 490.093 1636.4 488.982 1631.15 488.982C1626.91 488.982 1622.97 489.689 1619.33 491.103C1615.9 492.517 1612.87 494.436 1610.24 496.86C1607.82 499.284 1605.9 502.112 1604.49 505.344C1603.07 508.576 1602.37 512.212 1602.37 516.252V612H1553.58V517.464C1553.58 511.404 1552.67 506.253 1550.86 502.011C1549.04 497.769 1546.31 494.537 1542.67 492.315C1539.04 490.093 1534.8 488.982 1529.95 488.982C1525.71 488.982 1521.77 489.689 1518.13 491.103C1514.7 492.517 1511.67 494.436 1509.04 496.86C1506.62 499.284 1504.7 502.112 1503.28 505.344C1501.87 508.576 1501.16 512.111 1501.16 515.949V612H1452.38ZM1840.8 615.333C1833.53 615.333 1826.56 614.323 1819.89 612.303C1813.23 610.283 1807.17 607.556 1801.71 604.122C1796.46 600.688 1792.02 596.749 1788.38 592.305C1784.95 587.659 1782.62 582.912 1781.41 578.064L1792.02 574.428L1789.29 611.697H1744.14V387.78H1792.93V489.588L1782.93 485.952C1784.14 480.7 1786.46 475.852 1789.9 471.408C1793.33 466.762 1797.67 462.722 1802.93 459.288C1808.18 455.652 1813.93 452.824 1820.2 450.804C1826.46 448.784 1832.92 447.774 1839.59 447.774C1853.53 447.774 1865.85 451.41 1876.55 458.682C1887.46 465.752 1896.05 475.65 1902.31 488.376C1908.57 500.9 1911.7 515.242 1911.7 531.402C1911.7 547.764 1908.57 562.308 1902.31 575.034C1896.25 587.558 1887.87 597.456 1877.16 604.728C1866.45 611.798 1854.33 615.333 1840.8 615.333ZM1828.07 574.428C1835.35 574.428 1841.71 572.61 1847.16 568.974C1852.62 565.338 1856.76 560.389 1859.59 554.127C1862.62 547.663 1864.13 540.088 1864.13 531.402C1864.13 522.918 1862.62 515.444 1859.59 508.98C1856.76 502.516 1852.62 497.567 1847.16 494.133C1841.71 490.699 1835.35 488.982 1828.07 488.982C1820.6 488.982 1814.14 490.699 1808.68 494.133C1803.23 497.567 1798.99 502.516 1795.96 508.98C1792.93 515.444 1791.41 522.918 1791.41 531.402C1791.41 540.088 1792.93 547.663 1795.96 554.127C1798.99 560.389 1803.23 565.338 1808.68 568.974C1814.14 572.61 1820.6 574.428 1828.07 574.428ZM1943.88 612V387.78H1992.36V612H1943.88ZM2040.75 612V399.9H2188.62V443.835H2090.75V568.065H2191.65V612H2040.75ZM2064.99 525.039V483.225H2174.98V525.039H2064.99ZM2236.05 612V399.9H2331.49C2345.03 399.9 2357.25 402.829 2368.16 408.687C2379.27 414.545 2387.95 422.625 2394.21 432.927C2400.48 443.027 2403.61 454.541 2403.61 467.469C2403.61 480.801 2400.48 492.82 2394.21 503.526C2387.95 514.03 2379.37 522.312 2368.46 528.372C2357.55 534.432 2345.23 537.462 2331.49 537.462H2285.13V612H2236.05ZM2353.61 612L2299.68 516.252L2352.4 508.677L2412.39 612H2353.61ZM2285.13 498.072H2326.95C2332.2 498.072 2336.74 496.961 2340.58 494.739C2344.62 492.315 2347.65 488.982 2349.67 484.74C2351.89 480.498 2353.01 475.65 2353.01 470.196C2353.01 464.742 2351.79 459.995 2349.37 455.955C2346.95 451.713 2343.41 448.481 2338.76 446.259C2334.32 444.037 2328.87 442.926 2322.4 442.926H2285.13V498.072ZM2448.8 612V399.9H2540.3C2553.64 399.9 2565.45 402.93 2575.76 408.99C2586.26 415.05 2594.54 423.332 2600.6 433.836C2606.86 444.34 2609.99 456.157 2609.99 469.287C2609.99 483.023 2606.86 495.345 2600.6 506.253C2594.54 516.959 2586.26 525.443 2575.76 531.705C2565.45 537.967 2553.64 541.098 2540.3 541.098H2500.31V612H2448.8ZM2499.4 495.951H2533.03C2537.48 495.951 2541.52 494.84 2545.15 492.618C2548.79 490.396 2551.72 487.366 2553.94 483.528C2556.16 479.69 2557.27 475.246 2557.27 470.196C2557.27 464.944 2556.16 460.5 2553.94 456.864C2551.72 453.228 2548.79 450.4 2545.15 448.38C2541.52 446.36 2537.48 445.35 2533.03 445.35H2499.4V495.951Z" fill="black"/>
<defs>
<linearGradient id="paint0_linear_7_2" x1="179" y1="102" x2="987" y2="910" gradientUnits="userSpaceOnUse">
<stop offset="0.239583" stop-color="#FFDE59"/>
<stop offset="0.75" stop-color="#FF914D"/>
</linearGradient>
<clipPath id="clip0_7_2">
<rect width="808" height="808" fill="white" transform="translate(179 102)"/>
</clipPath>
</defs>
</svg>
