<svg width="1335" height="1335" viewBox="0 0 1335 1335" fill="none" xmlns="http://www.w3.org/2000/svg">
<mask id="mask0_14_15" style="mask-type:alpha" maskUnits="userSpaceOnUse" x="264" y="263" width="808" height="808">
<g clip-path="url(#clip0_14_15)">
<path fill-rule="evenodd" clip-rule="evenodd" d="M337.506 469.834C345.106 472.283 349.237 473.152 361.202 474.818C365.816 475.461 382.872 474.508 389.518 473.236C410.904 469.146 429.033 459.464 444.775 443.726C457.773 430.732 465.418 418.313 470.881 401.32C474.742 389.312 475.864 382.01 475.864 368.903C475.864 355.795 474.742 348.494 470.881 336.486C465.418 319.493 457.773 307.075 444.775 294.08C431.777 281.085 419.355 273.442 402.358 267.981C390.347 264.122 383.043 263 369.932 263C356.821 263 349.517 264.122 337.506 267.981C320.509 273.442 308.087 281.085 295.088 294.08C282.09 307.075 274.445 319.493 268.982 336.486C265.122 348.494 264 355.795 264 368.903C264 382.01 265.122 389.312 268.982 401.32C274.445 418.313 282.09 430.732 295.088 443.726C308.079 456.713 320.483 464.348 337.506 469.834ZM664.209 1071H664.433C671.451 1070.99 682.853 1070.2 688.003 1069.21C709.389 1065.12 727.517 1055.44 743.259 1039.7C756.258 1026.71 763.903 1014.29 769.366 997.295C773.226 985.286 774.348 977.985 774.348 964.878C774.348 951.772 773.226 944.47 769.366 932.461C763.903 915.469 756.258 903.05 743.259 890.055C730.261 877.061 717.839 869.418 700.842 863.957C688.831 860.097 681.527 858.976 668.416 858.976C655.305 858.976 648.002 860.097 635.991 863.957C618.993 869.418 606.571 877.061 593.573 890.055C580.575 903.05 572.93 915.469 567.467 932.461C563.607 944.47 562.485 951.772 562.485 964.878C562.485 977.985 563.607 985.286 567.467 997.295C572.93 1014.29 580.575 1026.71 593.573 1039.7C606.564 1052.69 618.968 1060.32 635.991 1065.81C643.591 1068.26 647.722 1069.12 659.686 1070.79C660.687 1070.93 662.272 1071 664.209 1071ZM961.865 1071H962.085C969.102 1070.99 980.503 1070.2 985.657 1069.21C1007.04 1065.12 1025.17 1055.44 1040.91 1039.7C1053.91 1026.71 1061.56 1014.29 1067.02 997.295C1070.88 985.286 1072 977.985 1072 964.878C1072 951.772 1070.88 944.47 1067.02 932.461C1061.56 915.469 1053.91 903.05 1040.91 890.055C1027.91 877.061 1015.5 869.418 998.495 863.957C986.482 860.097 979.179 858.976 966.069 858.976C952.959 858.976 945.655 860.097 933.643 863.957C916.646 869.418 904.224 877.061 891.226 890.055C878.228 903.05 870.583 915.469 865.12 932.461C861.26 944.47 860.138 951.772 860.138 964.878C860.138 977.985 861.26 985.286 865.12 997.295C870.583 1014.29 878.228 1026.71 891.226 1039.7C904.217 1052.69 916.621 1060.32 933.643 1065.81C941.246 1068.26 945.376 1069.12 957.342 1070.79C958.34 1070.93 959.923 1071 961.865 1071ZM1072 667.307C1072 654.199 1070.88 646.897 1067.02 634.889C1061.56 617.897 1053.91 605.478 1040.91 592.483C1027.91 579.488 1015.5 571.846 998.495 566.385C986.482 562.525 979.179 561.403 966.069 561.403C952.959 561.403 945.655 562.525 933.643 566.385C916.646 571.846 904.224 579.489 891.226 592.483C878.228 605.478 870.583 617.897 865.12 634.889C861.26 646.897 860.138 654.199 860.138 667.307C860.138 680.414 861.26 687.716 865.12 699.724C870.583 716.716 878.228 729.134 891.226 742.13C904.217 755.117 916.621 762.751 933.643 768.237C941.246 770.686 945.376 771.555 957.342 773.221C961.952 773.864 979.013 772.911 985.657 771.64C1007.04 767.549 1025.17 757.868 1040.91 742.13C1053.91 729.134 1061.56 716.716 1067.02 699.724C1070.88 687.716 1072 680.414 1072 667.307ZM264 667.307C264 680.414 265.122 687.716 268.983 699.724C274.445 716.716 282.09 729.134 295.089 742.13C308.079 755.117 320.483 762.751 337.506 768.237C345.106 770.686 349.237 771.555 361.202 773.221C365.816 773.864 382.872 772.911 389.519 771.64C410.904 767.549 429.033 757.868 444.775 742.13C457.773 729.134 465.418 716.716 470.881 699.724C474.742 687.716 475.864 680.414 475.864 667.306C475.864 654.199 474.742 646.897 470.881 634.889C465.418 617.897 457.773 605.478 444.775 592.483C431.777 579.488 419.355 571.846 402.358 566.385C390.347 562.525 383.043 561.403 369.932 561.403C356.821 561.403 349.517 562.525 337.506 566.385C320.509 571.846 308.087 579.489 295.089 592.483C282.09 605.478 274.445 617.897 268.983 634.889C265.122 646.897 264 654.199 264 667.307ZM668.416 263C655.305 263 648.002 264.122 635.991 267.981C618.993 273.442 606.571 281.085 593.573 294.08C580.574 307.075 572.93 319.493 567.467 336.486C563.607 348.494 562.485 355.795 562.485 368.903C562.485 382.01 563.607 389.312 567.467 401.32C572.93 418.313 580.575 430.732 593.573 443.726C606.564 456.713 618.968 464.348 635.991 469.834C643.59 472.283 647.722 473.152 659.686 474.818C664.3 475.461 681.356 474.508 688.003 473.236C709.389 469.146 727.517 459.464 743.259 443.726C756.258 430.732 763.903 418.313 769.366 401.32C773.226 389.312 774.348 382.01 774.348 368.903C774.348 355.795 773.226 348.494 769.366 336.486C763.903 319.493 756.258 307.075 743.259 294.08C730.261 281.085 717.839 273.442 700.842 267.981C688.831 264.122 681.527 263 668.416 263ZM635.991 768.237C643.591 770.686 647.722 771.555 659.686 773.221C664.301 773.864 681.356 772.911 688.003 771.64C709.389 767.549 727.517 757.868 743.259 742.13C756.258 729.134 763.903 716.716 769.366 699.724C773.226 687.716 774.348 680.414 774.348 667.307C774.348 654.199 773.226 646.897 769.366 634.889C763.903 617.897 756.258 605.478 743.259 592.483C730.261 579.488 717.839 571.846 700.842 566.385C688.831 562.525 681.527 561.403 668.416 561.403C655.305 561.403 648.002 562.525 635.991 566.385C618.993 571.846 606.571 579.489 593.573 592.483C580.575 605.478 572.93 617.897 567.467 634.889C563.607 646.897 562.485 654.199 562.485 667.307C562.485 680.414 563.607 687.716 567.467 699.724C572.93 716.716 580.575 729.134 593.573 742.13C606.564 755.117 618.968 762.751 635.991 768.237Z" fill="black"/>
</g>
</mask>
<g mask="url(#mask0_14_15)">
<rect x="264" y="263" width="808" height="808" fill="url(#paint0_linear_14_15)"/>
</g>
<defs>
<linearGradient id="paint0_linear_14_15" x1="264" y1="263" x2="1072" y2="1071" gradientUnits="userSpaceOnUse">
<stop offset="0.239583" stop-color="#FFDE59"/>
<stop offset="0.75" stop-color="#FF914D"/>
</linearGradient>
<clipPath id="clip0_14_15">
<rect width="808" height="808" fill="white" transform="translate(264 263)"/>
</clipPath>
</defs>
</svg>
